<?xml version="1.0" standalone="no"?>
<!DOCTYPE svg PUBLIC "-//W3C//DTD SVG 20010904//EN"
 "http://www.w3.org/TR/2001/REC-SVG-20010904/DTD/svg10.dtd">
<svg version="1.0" xmlns="http://www.w3.org/2000/svg"
 width="800.000000pt" height="800.000000pt" viewBox="0 0 800.000000 800.000000"
 preserveAspectRatio="xMidYMid meet">

<g transform="translate(0.000000,800.000000) scale(0.100000,-0.100000)"
fill="#333" stroke="none">
<path d="M2008 4480 c-55 -14 -147 -63 -194 -104 -170 -147 -204 -412 -77
-603 47 -72 103 -118 193 -162 73 -35 77 -36 196 -36 119 0 121 0 198 38 124
62 231 188 251 300 4 20 10 37 12 37 3 0 20 -9 38 -20 l33 -20 31 55 c17 30
31 58 31 62 0 10 -202 123 -220 123 -13 0 -230 -128 -230 -136 0 -17 53 -104
63 -104 6 0 27 9 46 21 l33 20 -7 -28 c-10 -41 -60 -104 -107 -136 -193 -129
-447 -10 -465 218 -6 75 8 129 50 192 99 149 313 174 447 51 l35 -31 64 35
c36 19 67 40 69 46 7 22 -98 111 -173 148 -70 35 -83 38 -178 40 -56 2 -119
-1 -139 -6z"/>
<path d="M3962 4330 c-28 -12 -46 -51 -38 -84 9 -37 60 -61 96 -46 57 24 60
103 4 129 -29 13 -31 13 -62 1z"/>
<path d="M5025 4328 c-28 -16 -35 -28 -35 -63 0 -16 4 -35 8 -41 10 -15 47
-34 67 -34 25 0 65 46 65 75 0 30 -41 75 -67 75 -10 0 -27 -6 -38 -12z"/>
<path d="M3120 4279 c-60 -27 -117 -83 -146 -144 -31 -65 -33 -179 -5 -241 49
-109 145 -168 271 -168 86 -1 131 13 189 55 l41 29 0 105 0 105 -65 0 -65 0 0
-80 c0 -77 -1 -81 -26 -90 -41 -16 -116 -12 -154 9 -103 54 -107 239 -8 299
64 38 142 35 200 -8 l30 -22 16 23 c55 75 54 72 17 98 -53 36 -104 50 -180 50
-49 0 -83 -5 -115 -20z"/>
<path d="M4530 4235 l0 -55 75 0 75 0 0 -225 0 -225 65 0 65 0 0 225 0 225 80
0 80 0 0 55 0 55 -220 0 -220 0 0 -55z"/>
<path d="M3617 4159 c-43 -10 -93 -34 -102 -49 -3 -6 4 -25 16 -43 12 -17 23
-33 24 -35 1 -1 22 7 46 18 77 34 138 24 154 -27 6 -22 5 -23 -72 -23 -131 -1
-193 -42 -193 -130 0 -62 29 -106 87 -132 55 -24 112 -20 155 12 28 21 28 21
28 0 0 -18 6 -20 60 -20 l60 0 0 155 c0 167 -8 202 -51 241 -47 41 -125 53
-212 33z m138 -271 c-12 -38 -42 -62 -79 -62 -38 0 -66 18 -66 43 0 31 23 41
88 41 61 0 63 -1 57 -22z"/>
<path d="M4278 4147 c-45 -23 -48 -23 -48 -6 0 16 -8 19 -60 19 l-60 0 0 -215
0 -215 60 0 60 0 0 141 0 141 29 29 c38 38 82 39 110 3 19 -24 21 -40 21 -170
l0 -144 61 0 60 0 -3 169 c-3 153 -5 172 -24 197 -54 73 -128 91 -206 51z"/>
<path d="M5360 4163 c-8 -3 -27 -15 -42 -25 -28 -19 -28 -19 -28 1 0 19 -6 21
-60 21 l-60 0 0 -215 0 -215 59 0 59 0 4 141 c3 140 3 141 31 165 33 29 77 31
100 6 14 -16 17 -43 17 -165 l0 -147 64 0 65 0 3 146 c3 139 4 147 27 165 31
26 83 25 107 -2 16 -18 19 -40 22 -165 l4 -144 60 0 59 0 -3 169 c-3 153 -5
172 -24 197 -64 87 -180 98 -265 27 l-30 -26 -27 25 c-48 45 -95 58 -142 41z"/>
<path d="M6005 4147 c-92 -44 -130 -113 -123 -223 5 -78 41 -136 108 -174 60
-34 165 -35 226 -3 65 35 69 44 30 82 l-34 33 -33 -17 c-64 -34 -141 -17 -169
35 -10 20 -8 20 146 20 l156 0 -4 74 c-4 85 -19 113 -85 160 -59 41 -148 46
-218 13z m163 -113 c12 -14 22 -29 22 -35 0 -5 -40 -9 -90 -9 -68 0 -90 3 -90
13 0 15 36 51 60 60 28 11 75 -3 98 -29z"/>
<path d="M3930 3945 l0 -215 65 0 65 0 0 215 0 215 -65 0 -65 0 0 -215z"/>
<path d="M5000 3945 l0 -215 60 0 60 0 0 215 0 215 -60 0 -60 0 0 -215z"/>
<path fill="#666" d="M2007 4123 l-78 -4 3 -62 3 -62 73 -3 72 -3 0 -64 0 -65 65 0 66 0
-3 133 -3 132 -60 1 c-33 0 -95 -1 -138 -3z"/>
</g>
</svg>
