<?xml version="1.0" encoding="UTF-8"?>
<!-- Generator: Adobe Illustrator 19.0.0, SVG Export Plug-In . SVG Version: 6.00 Build 0)  -->
<svg version="1.1" id="Camada_1" xmlns="http://www.w3.org/2000/svg" xmlns:xlink="http://www.w3.org/1999/xlink" x="0px" y="0px" viewBox="0 0 642 364" style="enable-background:new 0 0 642 364;" xml:space="preserve" fill="">
<style type="text/css">
	.st0{fill:#2e64c3}
</style>
<g>
	<g>
		<path d="M363.4,307.6h4.1v26.4h13.2v3.7h-17.3V307.6z"/>
		<path d="M389.3,306.6c0.5,0.5,0.7,1.1,0.7,1.8c0,0.7-0.2,1.4-0.7,1.8c-0.5,0.5-1.1,0.7-1.8,0.7s-1.3-0.2-1.8-0.7    c-0.5-0.5-0.7-1.1-0.7-1.8c0-0.7,0.2-1.4,0.7-1.8c0.5-0.5,1.1-0.7,1.8-0.7S388.8,306.1,389.3,306.6z M385.5,314.9h4v22.7h-4V314.9    z"/>
		<path d="M415.6,316.3c1.7,1,3,2.3,3.9,4.1c0.9,1.7,1.4,3.8,1.4,6c0,2.2-0.5,4.2-1.4,6c-0.9,1.7-2.2,3.1-3.8,4    c-1.6,1-3.5,1.4-5.7,1.4c-1.9,0-3.6-0.4-5.1-1.2c-1.5-0.8-2.6-1.9-3.4-3.4v4.5h-4v-31.9h4v13.7c0.8-1.5,2-2.6,3.4-3.4    c1.4-0.8,3.1-1.2,5-1.2C412,314.8,413.9,315.3,415.6,316.3z M413.1,333.3c1.2-0.7,2.1-1.6,2.7-2.9c0.6-1.2,1-2.6,1-4.2    c0-1.5-0.3-2.9-1-4.1c-0.7-1.2-1.6-2.2-2.7-2.9c-1.1-0.7-2.5-1-3.9-1s-2.8,0.3-3.9,1c-1.2,0.7-2.1,1.6-2.7,2.9    c-0.7,1.2-1,2.6-1,4.1c0,1.6,0.3,3,1,4.2c0.7,1.2,1.6,2.2,2.7,2.9c1.2,0.7,2.5,1,3.9,1S411.9,334,413.1,333.3z"/>
		<path d="M443.5,310c-0.7,0.6-1,1.5-1,2.7v3h6.3v3.1h-6.3v18.9h-4v-18.9h-3v-3.1h3v-2.5c0-1.7,0.4-3.1,1.1-4.2s1.6-2,2.8-2.6    s2.4-0.9,3.7-0.9c1.3,0,2.6,0.3,4,1l-0.9,3.3c-1-0.5-2-0.7-2.9-0.7C445.1,309.1,444.2,309.4,443.5,310z"/>
		<path d="M467.5,316.3c1.8,1,3.1,2.3,4.1,4.1c1,1.7,1.5,3.7,1.5,6c0,2.2-0.5,4.2-1.5,6c-1,1.7-2.4,3.1-4.1,4.1    c-1.8,1-3.8,1.5-6,1.5c-2.3,0-4.3-0.5-6.1-1.5c-1.8-1-3.1-2.3-4.1-4.1c-1-1.7-1.5-3.7-1.5-6c0-2.2,0.5-4.2,1.5-6    c1-1.7,2.4-3.1,4.1-4.1c1.8-1,3.8-1.5,6.1-1.5C463.7,314.8,465.7,315.3,467.5,316.3z M457.5,319.3c-1.2,0.7-2.1,1.6-2.7,2.9    c-0.6,1.2-1,2.6-1,4.2c0,1.6,0.3,3,1,4.2c0.6,1.2,1.5,2.2,2.7,2.9s2.5,1,4,1c1.5,0,2.8-0.3,3.9-1s2.1-1.6,2.7-2.9    c0.6-1.2,1-2.6,1-4.2c0-1.5-0.3-2.9-1-4.2c-0.6-1.2-1.5-2.2-2.7-2.9c-1.2-0.7-2.5-1-3.9-1C459.9,318.3,458.6,318.6,457.5,319.3z"/>
		<path d="M485.9,316.1c1.4-0.8,3-1.3,4.9-1.3v3.9c-2.3-0.1-4.2,0.5-5.6,1.8c-1.4,1.3-2.3,3-2.5,5.2v12h-4v-22.7h4v4.9    C483.4,318.2,484.5,317,485.9,316.1z"/>
		<path class="st0" d="M506.8,307.6h4.1v30.1h-4.1V307.6z"/>
		<path class="st0" d="M534.6,316.3c1.8,1,3.1,2.3,4.1,4.1c1,1.7,1.5,3.7,1.5,6c0,2.2-0.5,4.2-1.5,6c-1,1.7-2.4,3.1-4.1,4.1    c-1.8,1-3.8,1.5-6,1.5c-2.3,0-4.3-0.5-6.1-1.5c-1.8-1-3.1-2.3-4.1-4.1c-1-1.7-1.5-3.7-1.5-6c0-2.2,0.5-4.2,1.5-6    c1-1.7,2.4-3.1,4.1-4.1c1.8-1,3.8-1.5,6.1-1.5C530.8,314.8,532.8,315.3,534.6,316.3z M524.6,319.3c-1.2,0.7-2.1,1.6-2.7,2.9    c-0.6,1.2-1,2.6-1,4.2c0,1.6,0.3,3,1,4.2c0.6,1.2,1.5,2.2,2.7,2.9s2.5,1,4,1c1.5,0,2.8-0.3,3.9-1s2.1-1.6,2.7-2.9    c0.6-1.2,1-2.6,1-4.2c0-1.5-0.3-2.9-1-4.2c-0.6-1.2-1.5-2.2-2.7-2.9c-1.2-0.7-2.5-1-3.9-1C527.1,318.3,525.7,318.6,524.6,319.3z"/>
		<path class="st0" d="M564.7,317.2c1.5,1.6,2.3,3.7,2.3,6.5v14.1h-4v-13c0-1.9-0.5-3.4-1.6-4.5c-1.1-1.1-2.6-1.6-4.5-1.6    c-2,0-3.7,0.7-5,2c-1.3,1.3-2,2.9-2.2,5v12.2h-4v-22.7h4v4.8c1.5-3.2,4.4-4.9,8.6-4.9C561.1,314.8,563.2,315.6,564.7,317.2z"/>
		<path class="st0" d="M577.9,306.6c0.5,0.5,0.7,1.1,0.7,1.8c0,0.7-0.2,1.4-0.7,1.8c-0.5,0.5-1.1,0.7-1.8,0.7s-1.3-0.2-1.8-0.7    s-0.7-1.1-0.7-1.8c0-0.7,0.2-1.4,0.7-1.8s1.1-0.7,1.8-0.7S577.4,306.1,577.9,306.6z M574.1,314.9h4v22.7h-4V314.9z"/>
		<path class="st0" d="M595.4,318.4c-1.5,0-2.8,0.3-4,1c-1.2,0.7-2.1,1.6-2.7,2.8c-0.7,1.2-1,2.6-1,4.2s0.3,3,1,4.2    c0.6,1.2,1.5,2.1,2.7,2.8c1.1,0.7,2.4,1,3.9,1s2.8-0.2,4-0.7c1.2-0.5,2.1-1.2,2.9-2.1l2.3,2.3c-1,1.3-2.3,2.3-3.9,3    c-1.6,0.7-3.4,1-5.4,1c-2.2,0-4.2-0.5-5.9-1.5c-1.7-1-3.1-2.3-4-4.1c-1-1.7-1.4-3.7-1.4-6c0-2.2,0.5-4.2,1.4-6    c1-1.7,2.3-3.1,4-4.1c1.7-1,3.7-1.5,5.9-1.5c1.9,0,3.6,0.3,5.2,0.9c1.5,0.6,2.8,1.4,3.8,2.6l-2.2,2.8    C600.1,319.3,597.9,318.4,595.4,318.4z"/>
	</g>
	<g>
		<path d="M41.3,132c0-3.8,0.5-7.2,1.6-10.1c16.6,1.9,32,2.8,46.1,2.8c14.1,0,24.7-0.3,31.7-0.8c1.8-4.4,3.4-9,4.6-14.1    c6.1,7.9,9.1,16.6,9.1,26.1c0,5.7-2.8,13.2-8.5,22.6c-5.7,9.4-12.3,18.6-19.8,27.7C80.3,218,62.3,242,52,258.1    c3.7,0.3,6.6,0.4,8.7,0.4c28.5,0,49.9-2,64.2-5.9c-1.1,7.7-3.7,13.6-8,17.8c-4.3,4.2-9.7,6.3-16.1,6.3c-3.4,0-10.4-0.6-20.9-1.7    c-10.5-1.1-21.3-1.7-32.4-1.7c-11.1,0-21.3,1-30.5,3c2.1-6.3,6.1-11,11.9-14.1c39.3-47.7,67.8-89.2,85.5-124.7    c-33.1,5.8-54.5,8.7-64,8.7C44.3,146.2,41.3,141.5,41.3,132z"/>
		<path d="M259.1,259c-5.7,6.5-12.8,11.8-21.3,15.7c-8.5,4-17.8,5.9-27.9,5.9c-10.1,0-19-2.4-26.7-7.1c-7.7-4.8-13.8-11.1-18.3-19    c-9.1-16.1-13.7-34.5-13.7-55.2c0-20.7,5.1-39.2,15.2-55.3c10.2-16.2,23.4-26.8,39.6-32c2.2,0.5,3.5,1.6,3.8,3.2    c-9.2,5.7-16.8,12.3-22.7,20c-5.9,7.7-9.9,18-12.2,31.1c5.5-15.4,14.2-27.6,25.9-36.4c11.7-8.8,24.1-13.3,36.9-13.3    s23.8,5.5,32.9,16.5c9,11,13.6,27,13.6,47.8c0,20.3-3.6,38.7-10.9,55.2C269.5,244.8,264.7,252.4,259.1,259z M252.9,144.2    c-5.9-8.8-14-13.3-24.2-13.3c-10.2,0-19.5,4-28.1,12.1c-8.6,8.1-15.1,18.1-19.6,30.2c-4.5,12.1-6.7,24.5-6.7,37.1    c0,17,3.1,31,9.4,42c6.3,11,15.7,16.4,28.2,16.4c10.2,0,19.1-4.2,26.9-12.5c7.8-8.3,13.6-18.6,17.3-30.9    c3.8-12.3,5.6-25.2,5.6-38.8C261.8,167.2,258.9,153.1,252.9,144.2z"/>
		<path d="M417.9,259c-5.7,6.5-12.8,11.8-21.3,15.7c-8.5,4-17.8,5.9-27.9,5.9c-10.1,0-19-2.4-26.7-7.1c-7.7-4.8-13.8-11.1-18.3-19    c-9.1-16.1-13.7-34.5-13.7-55.2c0-20.7,5.1-39.2,15.2-55.3c10.2-16.2,23.4-26.8,39.6-32c2.2,0.5,3.5,1.6,3.8,3.2    c-9.2,5.7-16.8,12.3-22.7,20c-5.9,7.7-9.9,18-12.2,31.1c5.5-15.4,14.2-27.6,25.9-36.4c11.7-8.8,24.1-13.3,36.9-13.3    s23.8,5.5,32.9,16.5c9,11,13.6,27,13.6,47.8c0,20.3-3.6,38.7-10.9,55.2C428.3,244.8,423.5,252.4,417.9,259z M411.7,144.2    c-5.9-8.8-14-13.3-24.2-13.3c-10.2,0-19.5,4-28.1,12.1c-8.6,8.1-15.1,18.1-19.6,30.2c-4.5,12.1-6.7,24.5-6.7,37.1    c0,17,3.1,31,9.4,42c6.3,11,15.7,16.4,28.2,16.4c10.2,0,19.1-4.2,26.9-12.5c7.8-8.3,13.6-18.6,17.3-30.9s5.6-25.2,5.6-38.8    C420.6,167.2,417.7,153.1,411.7,144.2z"/>
	</g>
	<g>
		<path d="M596.7,234.1c1.1,1.1,3.3,2.1,2.5,3.8c-0.9,1.9-3.1,1.2-4.9,0.7c-1.6-0.5-3.1-1.1-4.6-1.6c-0.9-0.1-1.6-0.8-2.6-1    c1.2,0.4,1.9,1.3,2.7,2.1c0.2,0.8,2.4,1.1,1.1,2.1c-2.2,1.8-0.3,3.7-0.7,6.2c-2.8-2.2-5.4-4.1-8.8-6.7c0.8,3.7,3.7,4.8,4.8,8.4    c-2.8-2.2-4.9-3.7-6.9-5.3c-0.2,0.1-0.4,0.3-0.7,0.4c2,2.8,4,5.5,6,8.3c0.7,0.9,1.7,2.2,1,3.2c-0.9,1.3-2.4,0.5-3.6-0.1    c-8.9-4.3-17.8-8.4-26.3-13.6c-2.3-1.4-4.7-2.4-7.3-3.1c-3.2-0.8-5.5-0.4-7.3,3c-2.9,5.3-8.3,8.1-12.9,11.7    c-1.4,1.1-2.2,2.4-4.3,3.1c-5.5,1.9-11,4.2-15,8.8c-0.7,0.8-1.9,1.2-4.1,2.6c1.7-2.7,2.6-4.2,3.5-5.7c-4.9,3.2-9.2,7-14.4,9.6    c-1.2,0.6-2.5,0.8-3.7,1.3c-0.4-2.4-1.5-1.2-2.6-0.6c-4.3,2.6-8.7,5.2-13.4,7.1c2-2.3,4-4.6,7.1-8.1c-9.8,3.1-18.2,6.2-27.3,5.7    c0.5-2.4,3.4-2,4.5-4.1c-6.6-0.4-13.2,1.7-20.5-0.7c4.9-1.6,9.7-1.4,13-5.3c-4.1-1.1-8.3-0.2-12.2-2.4c9.4-3.5,19.6-3.9,28.2-9    c2.2-1.3,5.8-1.4,5-5.6c-0.1-0.5,1.2-1.5,2.1-2c5.2-2.9,8.5-8,13.6-11.1c2.4-1.5,4.5-3.8,4-7c-0.5-3.3-3.7-3.4-6.2-4    c-7.5-1.6-14.8-2.6-20.4,4.5c-2.9-5.7-1.9-8.5,1.3-13.3c5.6-8.2,13.6-11.3,22.8-12.4c11.7-1.4,18.5-7.9,22.8-18.7    c6.5-16.5,7-33.4,5.3-50.6c-0.6-6.4-1.7-12.9-2.9-19.2c-0.6-3.1-1.1-6.7,1.1-8.6c7-6,3.9-13.9,4.9-21c1.1-7.9,1.9-15.8,0.9-23.9    c-0.7-5.6-0.9-11.4-0.6-17.1c4.2,7.3,3.7,15.7,6.1,23.4c0.8-10.3,0.3-20.6-0.5-30.9c-0.2-2.7-0.5-5.3-0.8-7.9    c-0.1-1.3-0.7-3,1-3.3c1.6-0.2,1.9,1.6,2.2,2.8c3.4,10.7,5.4,21.6,6.9,32.6c0.1,0.8-0.1,1.7,1,2.4c1.2-9.4,1.6-18.6,1.6-27.9    c0-1.9-0.8-5.1,1.2-5.3c2.9-0.2,2.8,3.3,3.1,5.4c0.9,8.4,1.6,16.9,2.2,25.4c0.2,3,0.3,5.9,1.8,9.8c0.2-12.8,2.8-24.3,4.5-36    c3.1,5.2,1.7,10.9,2.2,16.3c0.5,5.6,0.7,11.2,1.7,17.6c3.1-8.5,4-16.8,8-24.1c0.7,10.9-1.1,21.6-2.4,33.7    c3.3-5.7,4.4-10.8,6.1-15.7c0.3-0.9,0.5-1.9,0.8-2.9c0.6-1.7,1-4.5,2.9-4c2.2,0.6,1.4,3.4,1,5.3c-0.9,3.9-1.8,7.8-2.9,11.6    c-0.8,3-1.9,5.9-3.1,9.8c3.5-2.6,3.7-6.6,7.3-8.8c0.1,8.7-2.5,16.1-5.7,23.6c2.5-0.7,2.7-4.6,4.8-3.6c2.2,1.1,0,3.5-0.1,5.7    c2.4-1.3,3.8-1.1,2.7,2.2c-1.1,3.3-4.2,5.6-4.4,9.4c2-0.5,1.8-2.6,3.3-4.2c1.2,4.3-1.2,7.9-0.7,11.7c0.2,1.4-1.2,2.8,1.4,2.8    c-1.2,2.1,0.7,4.6-0.8,6.7c-0.2,0.3-0.6,0.9-0.5,1.1c2.8,4.5,2.8,4.5-0.7,8.2c6.3-1.5,2.7,2.8,2.8,4.6c0,1.2-2.8,2.5,0.8,3.3    c0.8,0.2,1.8,4.7-1.4,6.2c-1.6,0.7-3.4,1.2-5.1,1.8c2.1,1.1,6-1.3,6.5,1.8c0.4,2.4-1.1,5.5-4.8,6c6,0,6,0.1,4.5,5.3    c-0.1,0.4-0.6,1.1-0.2,1.1c3.3-0.2,3.4,1.7,2.6,4c-1.1,2.8-3.5,3.8-6.3,4.2c-0.6,0.1-1.2,0.2-2.3,0.3c1.8,1.1,3.2,0.6,4.6,0.7    c1.4,0.1,3.5-2.3,3.9,1.3c0.3,2.6-0.4,4.3-2.9,5c-1.9,0.5-3.8,0.6-7.1,1.1c2.2,0.3,3,0.3,3.8,0.5c1.9,0.6,5.3-1.4,5.5,1.4    c0.2,2.7-2.8,4.2-5.6,4.7c-0.5,0.1-1,0.1-1.8,0.2c2.1,1.8,4.1,1.1,6.4,0.4c-0.8,2.6-2.5,3.8-4.3,4.7c5.5,5.1,11.9,2.1,17.9,1.8    c10.3-0.5,20.6-1.5,30.9-2.1c1.7-0.1,4.6-1.1,4.9,1.7c0.3,2.3-1.7,3.9-3.9,4.5c-2.7,0.8-5.5,1.2-8.3,1.8c-2.4,0.8-4.9,1.1-7.4,1.6    c-0.6,0.2,0.4,0.9,0,0.3c1.8-0.8,14.5,1.5,19.7,1c-2,5.9-7.1,5.8-11.2,7.2c-2.3,1-4.4-0.6-6.4-0.3c2,0.1,4.2,0.6,6.4,1    c3,0.2,6-0.2,9.4,1.6c-5,4.2-11.3,3.1-16.7,5c4.7,0.9,9.3,1.7,14.4,2.6c-4.8,4.8-10.7,3-16.6,4.1c3.3,1.6,6.1,2.9,8.7,4.2    c-5,6-10.1,3.1-15.3,0.5c-2.7-0.3-4.7-2-7.1-3.2C592.8,231.4,595.3,232,596.7,234.1z"/>
		<path class="st1" d="M596.7,234.1c-3.2-1.1-5.7-3.2-9.6-5.9c4.8,1.3,7.9,2.7,10.7,4.9C597.5,233.5,597.1,233.8,596.7,234.1z"/>
		<path class="st2" d="M589.8,238.1c-2.5-1-4.5-2.4-6.5-5c3.1,0.4,4.8,2.2,6.5,3.9C589.7,237.3,589.8,237.7,589.8,238.1z"/>
	</g>
</g>
</svg>